<svg width="150" height="21" viewBox="0 0 150 21" fill="none" xmlns="http://www.w3.org/2000/svg">
<path fill-rule="evenodd" clip-rule="evenodd" d="M149.95 8.8469V6.53733H149.454L148.876 8.32572H148.859L148.287 6.53733H147.769V8.8469H148.063V6.85721H148.08L148.715 8.8469H148.996L149.635 6.85721H149.652V8.8469H149.95ZM146.856 8.8469V6.80122H147.485V6.53733H145.93V6.80122H146.552V8.8469H146.856ZM23.3205 11.8584L23.3222 11.8016C24.527 11.3932 25.2735 10.6785 25.2735 9.40267V9.20671C25.2735 7.74194 24.0663 6.53693 21.6041 6.53693H18.1985V17.9695H21.8516C24.2444 17.9695 25.887 16.783 25.887 14.8831V14.7686C25.887 13.2865 25.0023 12.2009 23.3205 11.8584ZM19.6887 7.82715H21.3917C23.0146 7.82715 23.8426 8.43357 23.8426 9.5196V9.63447C23.8426 10.9453 22.6937 11.3656 21.1843 11.3656H19.6887V7.82715ZM24.3604 14.7517C24.3604 16.1663 23.2308 16.6953 21.5828 16.6953H19.6887V12.5739H21.6096C23.2321 12.5739 24.3604 13.1058 24.3604 14.5718V14.7517ZM30.757 9.31335H31.1872V10.6526H30.8396C29.4487 10.6526 28.5381 11.3384 28.5381 13.1519V17.9695H27.1481V9.31335H28.5381V10.865H28.6045C28.8528 10.0815 29.4988 9.31335 30.757 9.31335ZM32.4245 9.31335H33.8154V17.9695H32.4245V9.31335ZM33.9681 7.37141C33.9681 8.03999 33.6598 8.35328 33.1198 8.35328C32.5798 8.35328 32.2709 8.03999 32.2709 7.37141C32.2709 6.70285 32.5798 6.37061 33.1198 6.37061C33.6598 6.37061 33.9681 6.70285 33.9681 7.37141ZM41.5294 15.585C41.5294 17.2511 40.2708 18.1325 38.4334 18.1325C36.5792 18.1325 35.354 17.3487 35.2547 15.585H36.6456C36.6949 16.6468 37.4894 16.9897 38.4334 16.9897C39.3769 16.9897 40.1385 16.5813 40.1385 15.6826C40.1385 13.576 35.354 15.03 35.354 11.6167C35.354 10.1952 36.4136 9.1499 38.3503 9.1499C40.1222 9.1499 41.2973 10.0157 41.43 11.6978H40.0391C39.9565 10.6851 39.2446 10.2932 38.3503 10.2932C37.3404 10.2932 36.7115 10.7506 36.7115 11.6167C36.7115 13.6579 41.5294 12.4002 41.5294 15.585ZM44.7376 9.31335H46.6251V10.522H44.7376V15.3071C44.7376 16.5648 45.069 16.8258 45.9132 16.8258C46.1448 16.8258 46.4098 16.7933 46.6251 16.7768V17.9534C46.3601 18.002 46.0125 18.0345 45.7642 18.0345C44.0424 18.0345 43.3472 17.3651 43.3472 15.5191V10.522H41.8736V9.31335H43.3472V6.53693H44.7376V9.31335ZM50.7331 9.1499C48.5639 9.1499 47.4055 10.62 47.4055 13.0045V14.2783C47.4055 16.6628 48.5639 18.1325 50.7331 18.1325C52.9014 18.1325 54.0603 16.6628 54.0603 14.2783V13.0045C54.0603 10.62 52.9014 9.1499 50.7331 9.1499ZM52.6535 14.1968C52.6535 16.2544 51.9249 16.9242 50.7331 16.9242C49.5408 16.9242 48.813 16.2544 48.813 14.1968V13.086C48.813 11.028 49.5408 10.3586 50.7331 10.3586C51.9249 10.3586 52.6535 11.028 52.6535 13.086V14.1968ZM55.5301 6.53693H56.9209V17.9691H55.5301V6.53693ZM70.3345 6.53693H72.6948V17.9695H71.2213V8.12151H71.1387L68.1749 16.077H66.3701L63.4406 8.12151H63.3579V17.9695H61.9011V6.53693H64.3766L67.2977 14.478H67.3808L70.3345 6.53693ZM79.4573 9.31335H80.8644L76.9743 20.7459H75.5341L76.5111 18.0345L73.6629 9.31335H75.1369L77.2393 16.0588H77.3056L79.4573 9.31335ZM84.6006 9.1499C82.4323 9.1499 81.2734 10.6851 81.2734 13.0045V14.2783C81.2734 16.6628 82.4323 18.1325 84.6006 18.1325C86.3391 18.1325 87.3653 17.1852 87.7129 15.5685H86.2895C86.0411 16.5648 85.4782 16.9242 84.6006 16.9242C83.4092 16.9242 82.6805 16.2544 82.6805 14.1968V14.0823H87.7625V13.0045C87.7625 10.6851 86.7697 9.1499 84.6006 9.1499ZM84.6006 10.3586C85.7273 10.3586 86.3374 11.0128 86.3541 13.0045H82.6826C82.7018 11.0128 83.4254 10.3586 84.6006 10.3586ZM92.9188 9.31335H93.3486V10.6526H93.0014C91.611 10.6526 90.7004 11.3384 90.7004 13.1519V17.9695H89.3099V9.31335H90.7004V10.865H90.7667C91.0146 10.0815 91.6606 9.31335 92.9188 9.31335ZM100.368 15.585C100.368 17.2511 99.1104 18.1325 97.2722 18.1325C95.4181 18.1325 94.1937 17.3487 94.0935 15.585H95.4844C95.5345 16.6468 96.329 16.9897 97.2722 16.9897C98.2157 16.9897 98.9773 16.5813 98.9773 15.6826C98.9773 13.576 94.1937 15.03 94.1937 11.6167C94.1937 10.1952 95.2532 9.1499 97.1895 9.1499C98.9606 9.1499 100.137 10.0157 100.269 11.6978H98.878C98.7957 10.6851 98.0838 10.2932 97.1895 10.2932C96.1797 10.2932 95.5508 10.7506 95.5508 11.6167C95.5508 13.6579 100.368 12.4002 100.368 15.585ZM111.421 14.9477C111.421 16.9897 109.997 18.1325 107.811 18.1325C105.759 18.1325 104.07 17.1527 103.855 14.9642H105.394C105.577 16.2544 106.504 16.8588 107.795 16.8588C109.269 16.8588 109.931 15.993 109.931 15.03C109.931 11.7794 104.037 13.6579 104.037 9.39526C104.037 7.56614 105.511 6.3739 107.563 6.3739C109.549 6.3739 111.205 7.33725 111.305 9.59122H109.765C109.633 8.20303 108.739 7.64765 107.547 7.64765C106.14 7.64765 105.527 8.46446 105.527 9.3294C105.527 12.2042 111.421 10.5056 111.421 14.9477ZM117.704 10.3586H117.636C117.26 9.59452 116.546 9.1499 115.635 9.1499C113.465 9.1499 112.472 10.62 112.472 13.0045V14.2783C112.472 16.6628 113.465 18.1325 115.635 18.1325C116.546 18.1325 117.261 17.6879 117.636 16.9242H117.704V17.9695V20.7459H119.095V9.31335H117.704V10.3586ZM115.8 16.9242C114.608 16.9242 113.879 16.2544 113.879 14.1968V13.086C113.879 11.028 114.608 10.3586 115.8 10.3586C116.992 10.3586 117.721 11.028 117.721 13.086V14.1968C117.721 16.2544 116.992 16.9242 115.8 16.9242ZM125.481 9.31335H126.872V17.9695H125.481V16.8588H125.415C125.084 17.5607 124.372 18.1325 123.263 18.1325C121.625 18.1325 120.614 17.2177 120.614 15.1762V9.31335H122.022V14.9806C122.022 16.3689 122.602 16.9732 123.644 16.9732C124.654 16.9732 125.481 16.3034 125.481 14.6212V9.31335ZM128.658 9.31335H130.048V17.9695H128.658V9.31335ZM135.373 9.1499C134.448 9.1499 133.743 9.59452 133.371 10.3586H133.304V9.31335V6.53693H131.914V17.9695H133.304V16.9242H133.371C133.743 17.6879 134.448 18.1325 135.373 18.1325C137.542 18.1325 138.535 16.6628 138.535 14.2783V13.0045C138.535 10.62 137.542 9.1499 135.373 9.1499ZM137.128 14.1968C137.128 16.2544 136.4 16.9242 135.208 16.9242C134.016 16.9242 133.288 16.2544 133.288 14.1968V13.086C133.288 11.028 134.016 10.3586 135.208 10.3586C136.4 10.3586 137.128 11.028 137.128 13.086V14.1968ZM143.36 9.1499C142.434 9.1499 141.729 9.59452 141.357 10.3586H141.29V9.31335V6.53693H139.9V17.9695H141.29V16.9242H141.357C141.729 17.6879 142.434 18.1325 143.36 18.1325C145.528 18.1325 146.522 16.6628 146.522 14.2783V13.0045C146.522 10.62 145.528 9.1499 143.36 9.1499ZM145.115 14.1968C145.115 16.2544 144.387 16.9242 143.194 16.9242C142.003 16.9242 141.274 16.2544 141.274 14.1968V13.086C141.274 11.028 142.003 10.3586 143.194 10.3586C144.387 10.3586 145.115 11.028 145.115 13.086V14.1968ZM130.202 7.37141C130.202 8.03999 129.893 8.35328 129.353 8.35328C128.814 8.35328 128.505 8.03999 128.505 7.37141C128.505 6.70285 128.814 6.37061 129.353 6.37061C129.893 6.37061 130.202 6.70285 130.202 7.37141Z" fill="#595454"/>
<path fill-rule="evenodd" clip-rule="evenodd" d="M5.42882 20.4646C5.27399 20.7803 4.94432 20.9837 4.58919 20.9837C4.44731 20.9837 4.31085 20.9528 4.18273 20.8911C1.25615 19.4913 -0.289978 17.0253 -0.289978 13.7582V10.0682C-0.289978 9.56059 0.128584 9.1481 0.642708 9.1481C1.15683 9.1481 1.57539 9.56059 1.57539 10.0682V13.7582C1.57539 16.3065 2.72633 18.1492 4.9969 19.2357C5.45928 19.4572 5.65333 20.0084 5.42882 20.4646ZM2.66916 11.9126C2.66916 12.4342 3.09773 12.8566 3.62604 12.8566C4.15477 12.8566 4.58335 12.4342 4.58335 11.9126V4.38238C4.58335 3.86038 4.15477 3.43799 3.62604 3.43799C3.09773 3.43799 2.66916 3.86038 2.66916 4.38238V11.9126ZM5.63038 11.6936C5.63038 12.2147 6.05895 12.6375 6.58726 12.6375C7.11599 12.6375 7.54457 12.2147 7.54457 11.6936V1.56934C7.54457 1.04771 7.11599 0.625732 6.58726 0.625732C6.05895 0.625732 5.63038 1.04771 5.63038 1.56934V11.6936ZM8.5916 12.3901C8.5916 12.9117 9.02017 13.3341 9.54848 13.3341C10.0772 13.3341 10.5058 12.9117 10.5058 12.3901V3.30171C10.5058 2.78011 10.0772 2.35729 9.54848 2.35729C9.02017 2.35729 8.5916 2.78011 8.5916 3.30171V12.3901ZM11.5528 13.5931C11.5528 14.099 11.9685 14.5087 12.4809 14.5087C12.9938 14.5087 13.4094 14.099 13.4094 13.5931V7.4507C13.4094 6.94475 12.9938 6.53468 12.4809 6.53468C11.9685 6.53468 11.5528 6.94475 11.5528 7.4507V13.5931Z" fill="#BE2BBB"/>
</svg>
