<svg width="116" height="28" viewBox="0 0 116 28" fill="none" xmlns="http://www.w3.org/2000/svg">
<path d="M67.8933 9.60465C66.56 7.77325 64.7467 6.67442 62.24 6.67442C58.1333 6.67442 54.7733 9.97093 54.7733 14.0523C54.7733 18.1337 58.1333 21.4302 62.24 21.4302C65.2267 21.4302 67.7867 19.7035 68.96 17.1919H61.28V11.1221H75.36V1.70349H87.8933V7.77326H81.3333V11.1221H87.8933V17.1919H81.3333V20.3314H87.8933V26.2442C88.1067 26.2442 75.36 26.2442 75.36 26.2442V17.3488C73.8667 24.0465 68.3733 27.5 62.24 27.5C56.16 27.5 51.04 23.9419 49.6 17.7151V26.3488H43.4667V12.0116C43.4667 12.0116 39.8933 15.0988 39.8933 26.3488H33.5467C33.5467 15.0988 29.9733 12.0116 29.9733 12.0116V26.3488H23.7867V1.44186C30.88 1.44186 35.5733 9.2907 36.6933 13.8953C37.8133 9.2907 42.5067 1.44186 49.6 1.44186V9.7093C50.8267 4.21512 56.4267 0.5 62.2933 0.5C68.2667 0.5 73.5467 4.94767 74.6667 9.60465H67.8933Z" fill="#0063C3"/>
<path d="M101.493 26.3488C100.587 19.5988 96.0534 14.7849 96.0534 14.7849V26.3488H89.4933V1.80814C90.9333 1.80814 96.16 4.5814 101.493 12.1163V1.80814H107.893V26.2965L101.493 26.3488Z" fill="#0063C3"/>
<path d="M8.10667 20.1744C7.94667 20.8547 6.82667 24.6221 6.4 26.3488H0C0.853333 23.2616 2.50667 17.9767 4.26667 14.4186C5.97333 10.9128 8.10666 7.0407 11.68 4.42442C13.3333 3.22093 16.48 0.866279 22.3467 1.38953V26.3488H16.16V20.1744H8.10667ZM16.16 14.4709V8.66279C14.1867 10.0233 12.0533 12.5349 10.7733 14.4709H16.16Z" fill="#0063C3"/>
<path d="M110.613 3.32558C110.613 1.86047 111.84 0.709302 113.333 0.709302C114.827 0.709302 116 1.91279 116 3.32558C116 4.7907 114.773 5.99419 113.333 5.99419C111.84 5.94186 110.613 4.7907 110.613 3.32558ZM115.52 3.32558C115.52 2.12209 114.56 1.18023 113.333 1.18023C112.107 1.18023 111.147 2.12209 111.147 3.32558C111.147 4.52907 112.107 5.47093 113.333 5.47093C114.56 5.47093 115.52 4.47674 115.52 3.32558ZM114.667 4.73837H114.027L113.387 3.53488H112.8V4.73837H112.213V1.91279H113.6C113.867 1.91279 114.187 1.91279 114.4 2.06977C114.667 2.22674 114.72 2.48837 114.72 2.80233C114.72 3.32558 114.453 3.53488 113.92 3.58721L114.667 4.73837ZM113.653 3.11628C113.973 3.11628 114.187 3.06395 114.187 2.69767C114.187 2.3314 113.76 2.3314 113.493 2.3314H112.8V3.11628H113.653Z" fill="#0063C3"/>
</svg>
